<?xml version="1.0" encoding="utf-8"?>
<!-- Generator: Adobe Illustrator 24.2.0, SVG Export Plug-In . SVG Version: 6.00 Build 0)  -->
<svg version="1.1" id="Layer_1" xmlns="http://www.w3.org/2000/svg" xmlns:xlink="http://www.w3.org/1999/xlink" x="0px" y="0px"
	 viewBox="0 0 595.28 841.89" style="enable-background:new 0 0 595.28 841.89;" xml:space="preserve">
<style type="text/css">
	.st0{fill:#FFFFFF;}
</style>
<g>
	<rect x="50.82" y="383.15" class="st0" width="498.47" height="13.85"/>
	<rect x="50.82" y="259.5" class="st0" width="498.47" height="13.85"/>
	<rect x="50.82" y="321.32" class="st0" width="498.47" height="13.85"/>
	<rect x="77.76" y="197.68" class="st0" width="444.59" height="13.86"/>
	<rect x="77.76" y="630.48" class="st0" width="444.59" height="13.86"/>
	<rect x="50.82" y="506.84" class="st0" width="498.47" height="13.83"/>
	<rect x="50.82" y="568.66" class="st0" width="498.47" height="13.85"/>
	<rect x="50.82" y="444.99" class="st0" width="498.47" height="13.83"/>
	<g>
		<path class="st0" d="M476.88,704.46H118.12c-57.4,0-104.09-46.69-104.09-104.09V241.62c0-57.4,46.69-104.09,104.09-104.09h358.75
			c57.4,0,104.09,46.69,104.09,104.09v358.75C580.96,657.77,534.27,704.46,476.88,704.46z M118.12,150.61
			c-50.19,0-91.02,40.83-91.02,91.02v358.75c0,50.19,40.83,91.02,91.02,91.02h358.75c50.19,0,91.02-40.83,91.02-91.02V241.62
			c0-50.19-40.83-91.02-91.02-91.02H118.12z"/>
	</g>
</g>
</svg>
