<?xml version="1.0" encoding="utf-8"?>
<!-- Generator: Adobe Illustrator 24.2.0, SVG Export Plug-In . SVG Version: 6.00 Build 0)  -->
<svg version="1.1" id="Layer_1" xmlns="http://www.w3.org/2000/svg" xmlns:xlink="http://www.w3.org/1999/xlink" x="0px" y="0px"
	 viewBox="0 0 595.28 841.89" style="enable-background:new 0 0 595.28 841.89;" xml:space="preserve">
<style type="text/css">
	.st0{fill:#FF6B00;}
	.st1{fill:#FF9E18;}
	.st2{fill:#FFD100;}
</style>
<g>
	<path class="st0" d="M510.24,516.56l-0.7-1.5c0-174.35-125.02-284.9-208.3-370.17c-30.66-31.46-49.93-43.94-49.93,0
		c0,198.12-165.67,195.82-165.67,370.17l-0.6,1.5h0.6c-0.3,3.89-0.6,7.79-0.6,11.78c0,117.43,95.17,212.6,212.6,212.6
		c117.43,0,212.6-95.16,212.6-212.6c0-3.99-0.4-7.89-0.6-11.78H510.24z"/>
	<path class="st1" d="M457.09,572.65l-0.52-1.12c0-130.76-93.77-213.67-156.23-277.63c-22.99-23.59-37.45-32.95-37.45,0
		c0,148.59-124.25,146.87-124.25,277.63l-0.45,1.12h0.45c-0.22,2.92-0.45,5.84-0.45,8.84c0,88.08,71.37,159.45,159.45,159.45
		c88.08,0,159.45-71.37,159.45-159.45c0-3-0.3-5.92-0.45-8.84H457.09z"/>
	<path class="st2" d="M191.64,628.75c-0.1,1.95-0.3,3.89-0.3,5.89c0,58.72,47.58,106.3,106.3,106.3c58.72,0,106.3-47.58,106.3-106.3
		c0-2-0.15-3.94-0.3-5.89h0.3l-0.3-0.75c0-87.18-82.83-86.03-82.83-185.09c0-21.97-9.64-15.73-24.96,0
		C254.2,485.55,191.69,540.82,191.69,628l-0.35,0.75H191.64z"/>
</g>
</svg>
