<?xml version="1.0" encoding="utf-8"?>
<!-- Generator: Adobe Illustrator 24.2.0, SVG Export Plug-In . SVG Version: 6.00 Build 0)  -->
<svg version="1.1" id="Layer_1" xmlns="http://www.w3.org/2000/svg" xmlns:xlink="http://www.w3.org/1999/xlink" x="0px" y="0px"
	 viewBox="0 0 595.28 841.89" style="enable-background:new 0 0 595.28 841.89;" xml:space="preserve">
<style type="text/css">
	.st0{fill:#FFFFFF;}
</style>
<g>
	<path class="st0" d="M459.84,461.07v-109H420v-64.02h27.38v-67.87h-38.06c-2.18-45.96-40.26-82.69-86.75-82.69
		c-46.49,0-84.59,36.73-86.78,82.69h-38.06v67.87h27.38v64.02h-39.84v109h39.84v183.12h-39.84v60.23h274.56v-60.23H420V461.07
		H459.84z M447.31,364.6v83.94H420V364.6H447.31z M322.58,150.01c39.52,0,71.95,31.03,74.15,70.16H248.35
		C250.53,181.11,282.98,150.01,322.58,150.01z M210.27,275.52V232.7h25.87h166.8h31.91v42.81H420H225.13H210.27z M197.81,448.54
		V364.6h27.31v83.94H197.81z M447.31,656.71v35.17h-249.5v-35.17h27.31H420H447.31z M407.47,644.18H237.66V461.07v-109v-64.02
		h169.81v64.02v109V644.18z"/>
	<rect x="315.93" y="324.04" class="st0" width="13.28" height="284.14"/>
	<rect x="273.18" y="324.04" class="st0" width="13.28" height="284.14"/>
	<rect x="358.18" y="324.04" class="st0" width="13.28" height="284.14"/>
</g>
</svg>
